<svg width="10" height="18" viewBox="0 0 10 18" fill="none" xmlns="http://www.w3.org/2000/svg">
<path d="M9.51263 5.56842L9.84019 5.24859C9.94324 5.14887 10 5.01376 10 4.87161C9.9998 4.72956 9.94324 4.59254 9.84019 4.49273L5.39031 0.170113C5.28736 0.0703874 5.15024 0 5.00365 0H5.00192C4.85411 0 4.71689 0.0703125 4.61404 0.170113L0.159989 4.50449C-0.0533296 4.71119 -0.0533296 5.04789 0.159989 5.25459L0.487647 5.57244C0.590593 5.67232 0.728024 5.72727 0.874509 5.72727C1.02099 5.72727 1.15832 5.67232 1.26127 5.57244L5.00223 1.94505L8.73881 5.56842C8.84196 5.6683 8.97929 5.72333 9.12577 5.72333C9.27236 5.72333 9.40948 5.6683 9.51263 5.56842Z" fill="white"/>
<path d="M9.51263 5.56842L9.84019 5.24859C9.94324 5.14887 10 5.01376 10 4.87161C9.9998 4.72956 9.94324 4.59254 9.84019 4.49273L5.39031 0.170113C5.28736 0.0703874 5.15024 0 5.00365 0H5.00192C4.85411 0 4.71689 0.0703125 4.61404 0.170113L0.159989 4.50449C-0.0533296 4.71119 -0.0533296 5.04789 0.159989 5.25459L0.487647 5.57244C0.590593 5.67232 0.728024 5.72727 0.874509 5.72727C1.02099 5.72727 1.15832 5.67232 1.26127 5.57244L5.00223 1.94505L8.73881 5.56842C8.84196 5.6683 8.97929 5.72333 9.12577 5.72333C9.27236 5.72333 9.40948 5.6683 9.51263 5.56842Z" fill="white"/>
<path d="M9.51263 5.56842L9.84019 5.24859C9.94324 5.14887 10 5.01376 10 4.87161C9.9998 4.72956 9.94324 4.59254 9.84019 4.49273L5.39031 0.170113C5.28736 0.0703874 5.15024 0 5.00365 0H5.00192C4.85411 0 4.71689 0.0703125 4.61404 0.170113L0.159989 4.50449C-0.0533296 4.71119 -0.0533296 5.04789 0.159989 5.25459L0.487647 5.57244C0.590593 5.67232 0.728024 5.72727 0.874509 5.72727C1.02099 5.72727 1.15832 5.67232 1.26127 5.57244L5.00223 1.94505L8.73881 5.56842C8.84196 5.6683 8.97929 5.72333 9.12577 5.72333C9.27236 5.72333 9.40948 5.6683 9.51263 5.56842Z" fill="white"/>
<path d="M9.51263 5.56842L9.84019 5.24859C9.94324 5.14887 10 5.01376 10 4.87161C9.9998 4.72956 9.94324 4.59254 9.84019 4.49273L5.39031 0.170113C5.28736 0.0703874 5.15024 0 5.00365 0H5.00192C4.85411 0 4.71689 0.0703125 4.61404 0.170113L0.159989 4.50449C-0.0533296 4.71119 -0.0533296 5.04789 0.159989 5.25459L0.487647 5.57244C0.590593 5.67232 0.728024 5.72727 0.874509 5.72727C1.02099 5.72727 1.15832 5.67232 1.26127 5.57244L5.00223 1.94505L8.73881 5.56842C8.84196 5.6683 8.97929 5.72333 9.12577 5.72333C9.27236 5.72333 9.40948 5.6683 9.51263 5.56842Z" fill="white"/>
<path d="M9.51263 5.56842L9.84019 5.24859C9.94324 5.14887 10 5.01376 10 4.87161C9.9998 4.72956 9.94324 4.59254 9.84019 4.49273L5.39031 0.170113C5.28736 0.0703874 5.15024 0 5.00365 0H5.00192C4.85411 0 4.71689 0.0703125 4.61404 0.170113L0.159989 4.50449C-0.0533296 4.71119 -0.0533296 5.04789 0.159989 5.25459L0.487647 5.57244C0.590593 5.67232 0.728024 5.72727 0.874509 5.72727C1.02099 5.72727 1.15832 5.67232 1.26127 5.57244L5.00223 1.94505L8.73881 5.56842C8.84196 5.6683 8.97929 5.72333 9.12577 5.72333C9.27236 5.72333 9.40948 5.6683 9.51263 5.56842Z" fill="white"/>
<path d="M9.51263 12.4316L9.84019 12.7514C9.94324 12.8511 10 12.9862 10 13.1284C9.9998 13.2704 9.94324 13.4075 9.84019 13.5073L5.39031 17.8299C5.28736 17.9296 5.15024 18 5.00365 18H5.00192C4.85411 18 4.71689 17.9297 4.61404 17.8299L0.159989 13.4955C-0.0533296 13.2888 -0.0533296 12.9521 0.159989 12.7454L0.487647 12.4276C0.590593 12.3277 0.728024 12.2727 0.874509 12.2727C1.02099 12.2727 1.15832 12.3277 1.26127 12.4276L5.00223 16.0549L8.73881 12.4316C8.84196 12.3317 8.97929 12.2767 9.12577 12.2767C9.27236 12.2767 9.40948 12.3317 9.51263 12.4316Z" fill="white"/>
<path d="M9.51263 12.4316L9.84019 12.7514C9.94324 12.8511 10 12.9862 10 13.1284C9.9998 13.2704 9.94324 13.4075 9.84019 13.5073L5.39031 17.8299C5.28736 17.9296 5.15024 18 5.00365 18H5.00192C4.85411 18 4.71689 17.9297 4.61404 17.8299L0.159989 13.4955C-0.0533296 13.2888 -0.0533296 12.9521 0.159989 12.7454L0.487647 12.4276C0.590593 12.3277 0.728024 12.2727 0.874509 12.2727C1.02099 12.2727 1.15832 12.3277 1.26127 12.4276L5.00223 16.0549L8.73881 12.4316C8.84196 12.3317 8.97929 12.2767 9.12577 12.2767C9.27236 12.2767 9.40948 12.3317 9.51263 12.4316Z" fill="white"/>
<path d="M9.51263 12.4316L9.84019 12.7514C9.94324 12.8511 10 12.9862 10 13.1284C9.9998 13.2704 9.94324 13.4075 9.84019 13.5073L5.39031 17.8299C5.28736 17.9296 5.15024 18 5.00365 18H5.00192C4.85411 18 4.71689 17.9297 4.61404 17.8299L0.159989 13.4955C-0.0533296 13.2888 -0.0533296 12.9521 0.159989 12.7454L0.487647 12.4276C0.590593 12.3277 0.728024 12.2727 0.874509 12.2727C1.02099 12.2727 1.15832 12.3277 1.26127 12.4276L5.00223 16.0549L8.73881 12.4316C8.84196 12.3317 8.97929 12.2767 9.12577 12.2767C9.27236 12.2767 9.40948 12.3317 9.51263 12.4316Z" fill="white"/>
<path d="M9.51263 12.4316L9.84019 12.7514C9.94324 12.8511 10 12.9862 10 13.1284C9.9998 13.2704 9.94324 13.4075 9.84019 13.5073L5.39031 17.8299C5.28736 17.9296 5.15024 18 5.00365 18H5.00192C4.85411 18 4.71689 17.9297 4.61404 17.8299L0.159989 13.4955C-0.0533296 13.2888 -0.0533296 12.9521 0.159989 12.7454L0.487647 12.4276C0.590593 12.3277 0.728024 12.2727 0.874509 12.2727C1.02099 12.2727 1.15832 12.3277 1.26127 12.4276L5.00223 16.0549L8.73881 12.4316C8.84196 12.3317 8.97929 12.2767 9.12577 12.2767C9.27236 12.2767 9.40948 12.3317 9.51263 12.4316Z" fill="white"/>
<path d="M9.51263 12.4316L9.84019 12.7514C9.94324 12.8511 10 12.9862 10 13.1284C9.9998 13.2704 9.94324 13.4075 9.84019 13.5073L5.39031 17.8299C5.28736 17.9296 5.15024 18 5.00365 18H5.00192C4.85411 18 4.71689 17.9297 4.61404 17.8299L0.159989 13.4955C-0.0533296 13.2888 -0.0533296 12.9521 0.159989 12.7454L0.487647 12.4276C0.590593 12.3277 0.728024 12.2727 0.874509 12.2727C1.02099 12.2727 1.15832 12.3277 1.26127 12.4276L5.00223 16.0549L8.73881 12.4316C8.84196 12.3317 8.97929 12.2767 9.12577 12.2767C9.27236 12.2767 9.40948 12.3317 9.51263 12.4316Z" fill="white"/>
</svg>
