<?xml version="1.0" encoding="UTF-8"?>
<svg width="22px" height="22px" viewBox="0 0 22 22" version="1.1" xmlns="http://www.w3.org/2000/svg" xmlns:xlink="http://www.w3.org/1999/xlink">
    <!-- Generator: Sketch 59.1 (86144) - https://sketch.com -->
    <title>icon / 22pt / default / facebook</title>
    <desc>Created with Sketch.</desc>
    <g id="icon-/-22pt-/-default-/-facebook" stroke="none" stroke-width="1" fill="none" fill-rule="evenodd">
        <rect id="base" fill="#D8D8D8" fill-rule="nonzero" opacity="0" x="0" y="0" width="22" height="22"></rect>
        <g id="facebook" fill-rule="nonzero">
            <path d="M13.6321927,7.06699896 C14.4234463,6.40292635 15.4368073,6.15141992 16.6209472,6.29789281 C17.0320278,6.34874168 17.3240533,6.7232095 17.2732045,7.13429011 C17.2223556,7.54537072 16.8478878,7.83739625 16.4368072,7.78654739 C15.6448563,7.68858656 15.0485256,7.83659012 14.5964866,8.21597124 C14.1606057,8.58179146 13.9422109,9.1397238 13.9540001,9.96712619 L13.9540001,9.96712619 L13.9536535,12.0685522 L16.014485,12.069356 C16.3941808,12.069356 16.707976,12.3515099 16.7576384,12.7175854 L16.764485,12.819356 C16.764485,13.2335696 16.4286986,13.569356 16.014485,13.569356 L16.014485,13.569356 L13.9536535,13.5685522 L13.9540001,21.1 C13.9540001,21.4796958 13.6718462,21.793491 13.3057706,21.8431534 L13.2040001,21.85 C12.7897865,21.85 12.4540001,21.5142136 12.4540001,21.1 L12.4540001,21.1 L12.4536535,13.5685522 L10.2166535,13.569356 C9.83695775,13.569356 9.52316256,13.2872021 9.47350014,12.9211266 L9.46665352,12.819356 C9.46665352,12.4051424 9.80243996,12.069356 10.2166535,12.069356 L10.2166535,12.069356 L12.4536535,12.0685522 L12.4540772,9.97788128 C12.4374691,8.81984444 12.7747871,7.87806852 13.4762922,7.20670409 Z" id="Combined-Shape" fill="#7D9EF9"></path>
            <path d="M6,0.25 L16,0.25 C19.1756373,0.25 21.75,2.82436269 21.75,6 L21.75,16 C21.75,19.1756373 19.1756373,21.75 16,21.75 L6,21.75 C2.82436269,21.75 0.25,19.1756373 0.25,16 L0.25,6 C0.25,2.82436269 2.82436269,0.25 6,0.25 Z M6,1.75 C3.65278981,1.75 1.75,3.65278981 1.75,6 L1.75,16 C1.75,18.3472102 3.65278981,20.25 6,20.25 L16,20.25 C18.3472102,20.25 20.25,18.3472102 20.25,16 L20.25,6 C20.25,3.65278981 18.3472102,1.75 16,1.75 L6,1.75 Z" id="Rectangle" fill="#FFFFFF"></path>
        </g>
    </g>
</svg>