<svg width="30" height="30" viewBox="0 0 30 30" fill="none" xmlns="http://www.w3.org/2000/svg">
<path d="M14.9999 0C15.4853 0 15.8788 0.393516 15.8788 0.878906V6.52734C15.8788 7.01273 15.4853 7.40625 14.9999 7.40625C14.5145 7.40625 14.121 7.01273 14.121 6.52734V0.878906C14.121 0.393516 14.5145 0 14.9999 0Z" fill="white"/>
<path d="M14.9999 22.5931C15.4853 22.5931 15.8788 22.9867 15.8788 23.472V29.1204C15.8788 29.6058 15.4853 29.9993 14.9999 29.9993C14.5145 29.9993 14.121 29.6058 14.121 29.1204V23.472C14.121 22.9866 14.5145 22.5931 14.9999 22.5931Z" fill="white"/>
<path d="M18.4753 7.22193L21.2995 2.33024C21.5422 1.90983 22.0798 1.76581 22.5001 2.00856C22.9205 2.25125 23.0645 2.78879 22.8218 3.20914L19.9976 8.10083C19.8348 8.38285 19.5394 8.5404 19.2356 8.5404C19.0865 8.5404 18.9354 8.50244 18.797 8.42251C18.3766 8.17982 18.2326 7.64228 18.4753 7.22193Z" fill="white"/>
<path d="M7.17812 26.7896L10.0023 21.898C10.245 21.4776 10.7825 21.3336 11.2029 21.5763C11.6232 21.819 11.7673 22.3565 11.5246 22.7769L8.70039 27.6685C8.53762 27.9505 8.24218 28.108 7.93843 28.108C7.78931 28.108 7.6382 28.0701 7.4998 27.9901C7.07944 27.7474 6.93542 27.2099 7.17812 26.7896Z" fill="white"/>
<path d="M21.898 10.0034L26.7898 7.17912C27.2103 6.9363 27.7477 7.08039 27.9904 7.5008C28.2331 7.92115 28.0891 8.45868 27.6687 8.70138L22.7769 11.5257C22.6385 11.6056 22.4874 11.6436 22.3383 11.6436C22.0346 11.6436 21.7391 11.486 21.5764 11.204C21.3337 10.7836 21.4777 10.2461 21.898 10.0034Z" fill="white"/>
<path d="M2.33152 21.2998L7.22315 18.4757C7.64362 18.233 8.1811 18.377 8.42373 18.7974C8.66643 19.2178 8.5224 19.7554 8.10205 19.998L3.21043 22.8221C3.07197 22.9021 2.92092 22.94 2.7718 22.94C2.46805 22.94 2.17256 22.7824 2.00985 22.5005C1.76715 22.08 1.91117 21.5425 2.33152 21.2998Z" fill="white"/>
<path d="M23.4726 14.1212H29.1211C29.6065 14.1212 30 14.5147 30 15.0001C30 15.4855 29.6065 15.879 29.1211 15.879H23.4726C22.9872 15.879 22.5937 15.4855 22.5937 15.0001C22.5937 14.5147 22.9872 14.1212 23.4726 14.1212Z" fill="white"/>
<path d="M0.878902 14.1212H6.52722C7.01261 14.1212 7.40613 14.5147 7.40613 15.0001C7.40613 15.4855 7.01261 15.879 6.52722 15.879H0.878902C0.393512 15.879 -3.8147e-06 15.4855 -3.8147e-06 15.0001C-3.8147e-06 14.5147 0.393512 14.1212 0.878902 14.1212Z" fill="white"/>
<path d="M21.5761 18.7978C21.8188 18.3774 22.3562 18.2333 22.7767 18.4761L27.6685 21.3003C28.0888 21.543 28.2328 22.0806 27.9901 22.5009C27.8274 22.7829 27.5319 22.9405 27.2282 22.9405C27.0791 22.9405 26.9279 22.9025 26.7895 22.8226L21.8978 19.9984C21.4774 19.7557 21.3334 19.2181 21.5761 18.7978Z" fill="white"/>
<path d="M2.0096 7.50087C2.2523 7.08046 2.78977 6.93649 3.21018 7.17919L8.10181 10.0034C8.52216 10.246 8.66618 10.7836 8.42349 11.2039C8.26071 11.486 7.96529 11.6436 7.66154 11.6436C7.51247 11.6436 7.3613 11.6056 7.22291 11.5257L2.33128 8.70146C1.91093 8.45876 1.76691 7.92122 2.0096 7.50087Z" fill="white"/>
<path d="M18.797 21.5758C19.2173 21.333 19.7549 21.4771 19.9976 21.8975L22.8218 26.7892C23.0645 27.2096 22.9205 27.7471 22.5001 27.9898C22.3617 28.0697 22.2106 28.1077 22.0615 28.1077C21.7577 28.1077 21.4623 27.9501 21.2995 27.6681L18.4753 22.7764C18.2326 22.3561 18.3766 21.8185 18.797 21.5758Z" fill="white"/>
<path d="M7.49989 2.00932C7.9203 1.7665 8.45784 1.91059 8.70048 2.331L11.5246 7.22258C11.7674 7.64293 11.6234 8.18047 11.203 8.42316C11.0646 8.50309 10.9135 8.54105 10.7643 8.54105C10.4606 8.54105 10.1651 8.38344 10.0024 8.10148L7.17821 3.2099C6.93551 2.78955 7.07954 2.25201 7.49989 2.00932Z" fill="white"/>
</svg>
