<svg viewBox="0 0 23 22" fill="none" xmlns="http://www.w3.org/2000/svg">
<rect opacity="0.01" x="1" width="22" height="22" fill="#D8D8D8"></rect>
<path fill-rule="evenodd" clip-rule="evenodd" d="M8.4499 5.3707C8.4499 7.52461 6.70381 9.2707 4.5499 9.2707C4.14797 9.2707 3.76025 9.2099 3.39541 9.097C5.07832 13.4091 8.38339 16.8382 12.5 18.6101C12.4037 18.271 12.3521 17.913 12.3521 17.5429C12.3521 15.389 14.0982 13.6429 16.2521 13.6429C18.406 13.6429 20.1521 15.389 20.1521 17.5429C20.1521 19.6968 18.406 21.4429 16.2521 21.4429C16.1444 21.4429 16.0378 21.4386 15.9323 21.43C15.8298 21.4477 15.7225 21.4479 15.6143 21.4277C8.67001 20.1364 3.02766 14.8458 1.09666 7.88252C0.939524 7.31587 0.807829 6.74104 0.702147 6.15947C0.688162 6.08251 0.684411 6.00606 0.689925 5.93152C0.663552 5.74839 0.649902 5.56114 0.649902 5.3707C0.649902 3.21679 2.39599 1.4707 4.5499 1.4707C6.70381 1.4707 8.4499 3.21679 8.4499 5.3707ZM2.4499 5.3707C2.4499 6.5305 3.3901 7.4707 4.5499 7.4707C5.7097 7.4707 6.6499 6.5305 6.6499 5.3707C6.6499 4.21091 5.7097 3.2707 4.5499 3.2707C3.3901 3.2707 2.4499 4.21091 2.4499 5.3707ZM16.2521 19.6429C15.0923 19.6429 14.1521 18.7027 14.1521 17.5429C14.1521 16.3831 15.0923 15.4429 16.2521 15.4429C17.4119 15.4429 18.3521 16.3831 18.3521 17.5429C18.3521 18.7027 17.4119 19.6429 16.2521 19.6429Z" fill="white"></path>
<path d="M17.9001 9.0001C17.9001 6.2939 15.7063 4.1001 13.0001 4.1001C12.503 4.1001 12.1001 4.50304 12.1001 5.0001C12.1001 5.49715 12.503 5.9001 13.0001 5.9001C14.7122 5.9001 16.1001 7.28801 16.1001 9.0001C16.1001 9.49715 16.503 9.9001 17.0001 9.9001C17.4972 9.9001 17.9001 9.49715 17.9001 9.0001Z" fill="#65BD00"></path>
<path d="M21.9001 9.0001C21.9001 4.08476 17.9154 0.100098 13.0001 0.100098C12.503 0.100098 12.1001 0.503041 12.1001 1.0001C12.1001 1.49715 12.503 1.9001 13.0001 1.9001C16.9213 1.9001 20.1001 5.07888 20.1001 9.0001C20.1001 9.49715 20.503 9.9001 21.0001 9.9001C21.4972 9.9001 21.9001 9.49715 21.9001 9.0001Z" fill="#65BD00"></path>
</svg>