<?xml version="1.0" encoding="UTF-8"?>
<svg width="22px" height="22px" viewBox="0 0 22 22" version="1.1" xmlns="http://www.w3.org/2000/svg" xmlns:xlink="http://www.w3.org/1999/xlink">
    <!-- Generator: Sketch 59.1 (86144) - https://sketch.com -->
    <title>icon / 22pt / default / telegram</title>
    <desc>Created with Sketch.</desc>
    <g id="icon-/-22pt-/-default-/-telegram" stroke="none" stroke-width="1" fill="none" fill-rule="evenodd">
        <rect id="base" fill="#D8D8D8" fill-rule="nonzero" opacity="0" x="0" y="0" width="22" height="22"></rect>
        <g id="telegram" transform="translate(0.000000, 0.000000)" fill-rule="nonzero">
            <path d="M13.008039,15.5645806 C13.9257977,16.0817407 14.7221013,15.7210396 14.9415864,14.7578779 L16.603602,6.97028682 C16.8449324,5.84832924 16.036104,5.06930688 15.04176,5.43941261 L5.27817768,9.17742653 C4.10317769,9.63350993 3.99772732,10.8290828 5.20492993,11.2032749 L7.69902935,11.9790441 C7.79737524,12.0096338 7.90158249,12.0164156 8.00306358,11.9988306 L8.68634454,11.8804294 C8.67676686,11.917926 8.67052481,11.9563291 8.66776156,11.9951956 L8.48580322,14.554529 C8.45905779,14.9307166 8.75702951,15.250625 9.13416667,15.250625 C9.56400473,15.250625 9.79892837,15.1152188 10.1005118,14.8156801 L10.9183239,14.0342184 L13.008039,15.5645806 Z M10.5130211,11.3419365 C10.8078817,10.8652494 10.4015298,10.2638433 9.84924846,10.3595444 L7.93550528,10.6911641 L6.29391049,10.1805596 L15.3272985,6.72208152 L13.6780754,14.4500218 L11.2470443,12.6636278 C10.9928311,12.4774597 10.641703,12.5004295 10.4139097,12.7181291 L9.88361397,13.2249268 L9.95313515,12.2470773 L10.5130211,11.3419365 Z" id="Path" fill="#039BE5"></path>
            <path d="M9,0.25 L13,0.25 C17.8324916,0.25 21.75,4.16750844 21.75,9 L21.75,13 C21.75,17.8324916 17.8324916,21.75 13,21.75 L9,21.75 C4.16750844,21.75 0.25,17.8324916 0.25,13 L0.25,9 C0.25,4.16750844 4.16750844,0.25 9,0.25 Z M9,1.75 C4.99593556,1.75 1.75,4.99593556 1.75,9 L1.75,13 C1.75,17.0040644 4.99593556,20.25 9,20.25 L13,20.25 C17.0040644,20.25 20.25,17.0040644 20.25,13 L20.25,9 C20.25,4.99593556 17.0040644,1.75 13,1.75 L9,1.75 Z" id="Rectangle" fill="#FFFFFF"></path>
        </g>
    </g>
</svg>