<?xml version="1.0" encoding="UTF-8"?>
<svg width="22px" height="22px" viewBox="0 0 22 22" version="1.1" xmlns="http://www.w3.org/2000/svg" xmlns:xlink="http://www.w3.org/1999/xlink">
    <!-- Generator: Sketch 59.1 (86144) - https://sketch.com -->
    <title>icon / 22pt / default / viber</title>
    <desc>Created with Sketch.</desc>
    <g id="icon-/-22pt-/-default-/-viber" stroke="none" stroke-width="1" fill="none" fill-rule="evenodd">
        <rect id="base" fill="#D8D8D8" fill-rule="nonzero" opacity="0" x="0" y="0" width="22" height="22"></rect>
        <g id="viber" transform="translate(0.000000, 0.000000)" fill-rule="nonzero">
            <path d="M5.328,20.378 C5.297,21.843 5.124,23.517 6.399,23.921 C7.649,24.328 8.374,23.323 10.004,21.283 C16.082,21.698 21.447,19.989 22.165,13.862 C22.808,8.415 21.977,4.34 19.838,2.401 C16.701,-0.605 6.49,-1.026 2.752,2.547 C1.213,4.148 0.463,6.497 0.393,9.94 C0.336,12.752 0.22,18.502 5.328,20.378 Z M1.893,9.971 C1.955,6.928 2.571,4.899 3.81,3.609 C6.931,0.627 16.18,0.972 18.815,3.5 C20.574,5.093 21.253,8.806 20.676,13.687 C20.152,18.163 17.27,18.927 16.185,19.214 C13.938,19.807 11.796,19.936 9.741,19.758 C9.2,19.7 8.987,20.212 8.79,20.398 C7.811,21.575 7.105,22.425 6.922,22.539 C6.787,22.338 6.808,21.387 6.824,20.623 C6.775,20.279 7.083,19.328 6.28,19.113 C1.735,17.771 1.838,12.698 1.893,9.971 Z" id="Shape" fill="#FFFFFF"></path>
            <g id="Group" transform="translate(5.000000, 5.000000)" fill="#C544FD">
                <path d="M0.128970629,3.57079987 C0.815542057,4.93965701 1.48497063,7.35851416 4.05554206,9.46365701 C4.94782777,10.1990856 7.61868491,11.8962284 8.6643992,11.8962284 C10.1583992,11.8962284 11.8649706,9.54594273 10.6152563,8.49765701 C10.0529706,7.94822844 9.26182777,7.4073713 8.7543992,7.10994273 C8.75354206,7.10908559 8.75268491,7.10908559 8.75268491,7.10908559 C7.43525634,6.34708559 6.71354206,7.7493713 6.62782777,7.80422844 C4.69754206,9.53222844 2.31982777,6.53051416 3.98611349,5.07851416 C4.19097063,4.82394273 5.41325634,4.23422844 4.68811349,2.89365701 C4.04525634,1.73051416 3.62097063,1.33022844 3.38097063,0.998514157 C2.11497063,-0.582057272 -0.624457943,2.0433713 0.128970629,3.57079987 L0.128970629,3.57079987 Z M7.9923992,8.17622844 C8.07982777,8.23108559 8.84182777,8.56451416 9.75125634,9.44994273 C9.86697063,9.54679987 9.09554206,10.6679427 8.6043992,10.603657 C8.50754206,10.5599427 7.80725634,10.3927999 6.30297063,9.47308559 C7.73097063,8.98794273 7.71897063,8.22765701 7.9923992,8.17622844 L7.9923992,8.17622844 Z M2.27868491,1.81194273 C2.33182777,1.78365701 2.35925634,1.78194273 2.35668491,1.77508559 C2.60354206,2.11879987 2.97211349,2.44622844 3.56011349,3.50994273 C3.71611349,3.79879987 3.33125634,3.91108559 3.08268491,4.16479987 C2.72868491,4.47851416 2.46897063,4.85222844 2.30954206,5.26451416 C1.78325634,4.27108559 1.54754206,3.5553713 1.30754206,3.05479987 C1.21154206,2.59879987 1.87068491,2.04508559 2.27868491,1.81194273 Z" id="Shape"></path>
                <path d="M7.17182777,3.0593713 C7.18125634,3.06022844 8.11382777,3.1793713 8.28097063,4.18308559 C8.4223992,5.03508559 9.68754206,4.80622844 9.54868491,3.97222844 C9.28897063,2.41308559 7.97668491,1.85765701 7.31754206,1.78222844 C6.47325634,1.68708559 6.3283992,2.96165701 7.17182777,3.0593713 L7.17182777,3.0593713 Z" id="Path"></path>
                <path d="M6.5023992,0.2873713 C6.51697063,0.2873713 8.54068491,0.2513713 9.85811349,1.66051416 C11.1592563,3.05251416 10.8721135,5.07622844 10.8695421,5.09422844 C10.7383992,5.92822844 12.0052563,6.1493713 12.1389706,5.29394273 C12.1561135,5.18679987 12.5341135,2.64022844 10.7975421,0.781942728 C9.07382777,-1.0626287 6.56668491,-1.00520013 6.46297063,-0.998342986 C5.5843992,-0.969200129 5.69068491,0.354228442 6.5023992,0.2873713 Z" id="Path"></path>
            </g>
        </g>
    </g>
</svg>